<svg width="24" height="24" viewBox="0 0 24 24" fill="none" xmlns="http://www.w3.org/2000/svg">
<path fill-rule="evenodd" clip-rule="evenodd" d="M6.37562 19.5713C5.89805 19.4006 5.50576 19.1617 5.17157 18.8275C4.19724 17.8532 4.03321 16.385 4.00559 13.7491H19.9944C19.9668 16.385 19.8028 17.8532 18.8284 18.8275C18.4943 19.1617 18.1021 19.4005 17.6247 19.5712L18.671 21.6639C18.8562 22.0344 18.7061 22.4849 18.3356 22.6701C17.9651 22.8553 17.5146 22.7052 17.3293 22.3347L16.1054 19.8868C15.057 19.9991 13.726 19.9991 12 19.9991C10.2742 19.9991 8.94323 19.9991 7.89491 19.8868L6.67098 22.3347C6.48574 22.7052 6.03524 22.8553 5.66475 22.6701C5.29427 22.4849 5.1441 22.0344 5.32934 21.6639L6.37562 19.5713ZM14.75 15.9991C14.75 15.5849 15.0858 15.2491 15.5 15.2491H17C17.4142 15.2491 17.75 15.5849 17.75 15.9991C17.75 16.4133 17.4142 16.7491 17 16.7491H15.5C15.0858 16.7491 14.75 16.4133 14.75 15.9991ZM7 15.2491C6.58579 15.2491 6.25 15.5849 6.25 15.9991C6.25 16.4133 6.58579 16.7491 7 16.7491H8.5C8.91421 16.7491 9.25 16.4133 9.25 15.9991C9.25 15.5849 8.91421 15.2491 8.5 15.2491H7Z" fill="#08101C"/>
<path d="M20 12.2491V9.99912C20 6.22789 20 4.34227 18.8284 3.17069C17.9495 2.29181 16.6688 2.07224 14.4917 2.01739C14.2216 2.01058 14 2.22894 14 2.49912C14 3.60369 13.1046 4.49912 12 4.49912C10.8954 4.49912 10 3.60369 10 2.49912C10 2.22894 9.77845 2.01058 9.50835 2.01739C7.33118 2.07224 6.05046 2.29181 5.17157 3.17069C4 4.34227 4 6.22789 4 9.99912V12.2491H20Z" fill="#08101C"/>
</svg>
