<svg width="20" height="20" viewBox="0 0 20 20" fill="none" xmlns="http://www.w3.org/2000/svg">
<path d="M7.9165 16.668V18.3346C7.9165 18.6798 8.19633 18.9596 8.5415 18.9596C8.88668 18.9596 9.1665 18.6798 9.1665 18.3346V16.668H7.9165Z" fill="#041438"/>
<path d="M12.4998 16.668H11.2498V18.3346C11.2498 18.6798 11.5297 18.9596 11.8748 18.9596C12.22 18.9596 12.4998 18.6798 12.4998 18.3346V16.668Z" fill="#041438"/>
<path fill-rule="evenodd" clip-rule="evenodd" d="M14.4873 5.48856L14.7007 5.44584C15.0472 5.37648 15.4054 5.4096 15.7346 5.54141C16.3099 5.77174 16.939 5.81477 17.5383 5.66479L17.5896 5.65197C18.0259 5.54276 18.3335 5.13713 18.3335 4.67077V2.89533C18.3335 2.28049 17.78 1.82751 17.2047 1.97148C16.8743 2.05416 16.5275 2.03044 16.2104 1.90347L16.1495 1.87909C15.6187 1.66654 15.041 1.61314 14.4824 1.72498L14.1085 1.79983C13.6586 1.8899 13.3335 2.29898 13.3335 2.77502V8.56857C13.3335 8.89961 13.5918 9.16797 13.9104 9.16797C14.229 9.16797 14.4873 8.89961 14.4873 8.56857V5.48856Z" fill="#041438"/>
<path d="M12.0832 5V8.56727C12.0832 9.54319 12.8565 10.4167 13.9101 10.4167C14.9637 10.4167 15.737 9.54319 15.737 8.56727V6.85663C16.3711 7.02779 17.037 7.04779 17.6832 6.91246C18.0933 7.61393 18.3332 8.46179 18.3332 9.375V14.5211C18.3332 15.7061 17.5098 16.6667 16.4941 16.6667H10.4165V9.375C10.4165 7.68345 9.72308 6.06336 8.56865 5H12.0832Z" fill="#041438"/>
<path fill-rule="evenodd" clip-rule="evenodd" d="M1.6665 9.375C1.6665 6.95876 3.34544 5 5.4165 5C7.48757 5 9.1665 6.95875 9.1665 9.375V16.6667H3.52697C2.49946 16.6667 1.6665 15.6949 1.6665 14.4961V9.375ZM3.5415 13.3333C3.5415 12.9882 3.82133 12.7083 4.1665 12.7083H6.6665C7.01168 12.7083 7.2915 12.9882 7.2915 13.3333C7.2915 13.6785 7.01168 13.9583 6.6665 13.9583H4.1665C3.82133 13.9583 3.5415 13.6785 3.5415 13.3333Z" fill="#041438"/>
</svg>
